<?xml version="1.0" encoding="utf-8"?>

<!-- Uploaded to: SVG Repo, www.svgrepo.com, Generator: SVG Repo Mixer Tools -->
<svg height="800px" width="800px" version="1.1" id="Layer_1" xmlns="http://www.w3.org/2000/svg" xmlns:xlink="http://www.w3.org/1999/xlink" 
	 viewBox="0 0 100 100" enable-background="new 0 0 100 100" xml:space="preserve">
<g>
	<g>
		<path fill="#8BC53F" d="M47.6,23.7c0,0,0.7-6.7,2.8-6.7c2.2,0,2.5,7,2.5,7L47.6,23.7z"/>
	</g>
	<path fill="#231F20" d="M49.5,17c2.2,0,2.5,5,2.5,5l-5.3-0.3C46.6,21.7,47.3,17,49.5,17 M49.5,14c-3.5,0-5.3,3.7-5.8,7.2l-0.5,3.2
		l3.2,0.2l5.3,0.3l3.4,0.2l-0.2-3.4C54.7,18,53.1,14,49.5,14L49.5,14z"/>
	<g>
		<linearGradient id="SVGID_1_" gradientUnits="userSpaceOnUse" x1="53.0292" y1="83.2693" x2="53.0292" y2="21.7953">
			<stop  offset="0" style="stop-color:#F6921E"/>
			<stop  offset="0.3442" style="stop-color:#F7951D"/>
			<stop  offset="0.5983" style="stop-color:#F89E1A"/>
			<stop  offset="0.8228" style="stop-color:#FBAE14"/>
			<stop  offset="1" style="stop-color:#FFC10E"/>
		</linearGradient>
		<path fill="url(#SVGID_1_)" d="M83.6,50.8c0-13.4-8-24.3-17.9-24.3c-1.2,0-2.4,0.2-3.5,0.5c-2.8-2.6-6.1-4.1-9.6-4.1
			c-3.5,0-9.7,0.4-12.4,2.8c-0.9-0.2-0.2,0.5-1.2,0.5c-9.9,0-16.5,12.2-16.5,25.6c0,7.8,3.7,16.8,7.9,21.2c5.5,7.5,13,9.6,22.6,9.6
			S71.2,77.5,76.6,70C80.9,65.6,83.6,58.6,83.6,50.8z"/>
	</g>
	<g>
		<path fill="#231F20" d="M37.4,38.1c-0.1,0-0.3,0-0.4-0.1c-0.5-0.2-0.7-0.8-0.5-1.3c1.4-3,2.5-4.9,2.5-5c0.3-0.5,0.9-0.6,1.4-0.4
			c0.5,0.3,0.6,0.9,0.4,1.4c0,0-1.1,1.9-2.4,4.8C38.1,37.9,37.8,38.1,37.4,38.1z"/>
		<path fill="#231F20" d="M32.3,58.9c-0.5,0-1-0.4-1-1c0-0.3,0-0.7,0-1c0-3.1,0.5-6.6,1.6-10.4c0.1-0.5,0.7-0.8,1.2-0.7
			c0.5,0.1,0.8,0.7,0.7,1.2c-1,3.6-1.5,7-1.5,9.9c0,0.3,0,0.6,0,1C33.3,58.4,32.9,58.9,32.3,58.9C32.3,58.9,32.3,58.9,32.3,58.9z"/>
		<path fill="#231F20" d="M39.6,72.1c-0.2,0-0.3,0-0.5-0.1c-1.8-1-3.2-2.3-4.4-3.8c-0.3-0.4-0.3-1.1,0.2-1.4
			c0.4-0.3,1.1-0.3,1.4,0.2c1,1.3,2.3,2.4,3.8,3.3c0.5,0.3,0.6,0.9,0.4,1.4C40.2,72,39.9,72.1,39.6,72.1z"/>
	</g>
	<g>
		<path fill="#231F20" d="M60.8,38c-0.4,0-0.7-0.2-0.9-0.6c-1.4-2.9-2.5-4.7-2.5-4.8c-0.3-0.5-0.1-1.1,0.3-1.4
			c0.5-0.3,1.1-0.1,1.4,0.3c0,0.1,1.2,2,2.6,4.9c0.2,0.5,0,1.1-0.5,1.3C61.1,38,61,38,60.8,38z"/>
		<path fill="#231F20" d="M66.6,58.8C66.6,58.8,66.6,58.8,66.6,58.8c-0.6,0-1-0.5-1-1l0-0.2c0-3.1-0.6-6.7-1.8-10.7
			c-0.2-0.5,0.1-1.1,0.7-1.3c0.5-0.2,1.1,0.1,1.3,0.7c1.3,4.1,1.9,7.9,1.9,11.3l0,0.2C67.6,58.4,67.1,58.8,66.6,58.8z"/>
		<path fill="#231F20" d="M59.5,72.1c-0.3,0-0.7-0.2-0.9-0.5c-0.3-0.5-0.1-1.1,0.4-1.4c1.5-0.9,2.8-2,3.8-3.4c0.3-0.4,1-0.5,1.4-0.2
			c0.4,0.3,0.5,1,0.2,1.4C63.3,69.7,61.8,71,60,72C59.9,72.1,59.7,72.1,59.5,72.1z"/>
	</g>
	<path fill="#231F20" d="M48.9,23.7c3.3,0,6.5,1.5,9.1,3.9c1.1-0.3,2.2-0.4,3.3-0.4c9.4,0,16.9,10.5,16.9,23.5
		c0,7.5-2.6,14.2-6.5,18.5c-5.2,7.2-13.2,12.2-22.3,12.2s-17.2-5-22.3-12.2c-4-4.3-6.5-11-6.5-18.5c0-13,7.6-23.5,16.9-23.5
		c0.9,0,1.7,0.1,2.6,0.3C42.6,25,45.7,23.7,48.9,23.7 M48.9,20.7c-3.5,0-6.8,1.2-9.8,3.6c-0.6-0.1-1.1-0.1-1.7-0.1
		c-11,0-19.9,11.9-19.9,26.5c0,8,2.6,15.4,7.2,20.4c6,8.3,15.2,13.3,24.7,13.3S68,79.4,74,71.1c4.6-5,7.2-12.5,7.2-20.4
		c0-14.6-8.9-26.5-19.9-26.5c-0.8,0-1.6,0.1-2.4,0.2C55.9,21.9,52.4,20.7,48.9,20.7L48.9,20.7z"/>
	<g>
		<path fill="#FFF100" d="M40.8,47.4c-5,0-9-4-9-9c0-0.2,0-0.4,0-0.6c-2.6,1.6-4.3,4.4-4.3,7.7c0,5,4,9,9,9c4.8,0,8.7-3.7,9-8.5
			C44.1,46.9,42.5,47.4,40.8,47.4z"/>
		<path fill="#FFF100" d="M57.9,47.4c5,0,9-4,9-9c0-0.2,0-0.4,0-0.6c2.6,1.6,4.3,4.4,4.3,7.7c0,5-4,9-9,9c-4.8,0-8.7-3.7-9-8.5
			C54.6,46.9,56.2,47.4,57.9,47.4z"/>
	</g>
	<path fill="#FFF100" d="M49.4,68.3c-6.9,0-12.8-0.9-14.7-4.5c-0.4,0.8-0.7,1.7-0.7,2.6c0,4.9,6.9,9.8,15.4,9.8s15.4-4.9,15.4-9.8
		c0-0.9-0.2-1.8-0.7-2.6C62.2,67.4,56.3,68.3,49.4,68.3z"/>
	<g>
		<path fill="#231F20" d="M36.5,56C30.7,56,26,51.3,26,45.5c0-3.7,1.9-7.1,5.1-9c0.5-0.3,1.1-0.3,1.6,0c0.5,0.3,0.8,0.8,0.7,1.4
			l0,0.1c0,0.1,0,0.2,0,0.3c0,4.2,3.4,7.5,7.5,7.5c1.4,0,2.7-0.4,3.9-1.1c0.5-0.3,1.1-0.3,1.6,0c0.5,0.3,0.8,0.8,0.7,1.4
			C46.7,51.7,42,56,36.5,56z M30.6,40.8c-1,1.3-1.6,2.9-1.6,4.7c0,4.2,3.4,7.5,7.5,7.5c3,0,5.7-1.8,6.9-4.5
			c-0.8,0.2-1.7,0.3-2.6,0.3C35.9,48.9,31.7,45.4,30.6,40.8z"/>
		<path fill="#231F20" d="M62.2,56c-5.6,0-10.2-4.3-10.5-9.9c0-0.6,0.2-1.1,0.7-1.4c0.5-0.3,1.1-0.3,1.6,0c1.2,0.7,2.5,1.1,3.9,1.1
			c4.2,0,7.5-3.4,7.5-7.5c0-0.1,0-0.2,0-0.3l0-0.2c0-0.6,0.2-1.1,0.7-1.4c0.5-0.3,1.1-0.3,1.6,0c3.2,1.9,5.1,5.3,5.1,9
			C72.8,51.3,68,56,62.2,56z M55.4,48.6c1.2,2.6,3.8,4.5,6.9,4.5c4.2,0,7.5-3.4,7.5-7.5c0-1.7-0.6-3.4-1.6-4.7
			c-1.1,4.6-5.3,8-10.2,8C57,48.9,56.2,48.8,55.4,48.6z"/>
	</g>
	<path fill="#231F20" d="M63.5,64c0.4,0.8,0.7,1.6,0.7,2.5c0,4.7-6.6,9.4-14.8,9.4s-14.8-4.7-14.8-9.4c0-0.9,0.2-1.7,0.7-2.5
		c1.9,3.5,7.5,4.3,14.1,4.3S61.6,67.5,63.5,64 M63.5,61C63.5,61,63.5,61,63.5,61c-1.1,0-2.1,0.6-2.6,1.6c-0.7,1.2-3.2,2.7-11.5,2.7
		s-10.8-1.5-11.5-2.7c-0.5-1-1.5-1.6-2.6-1.6s-2.1,0.6-2.6,1.6c-0.7,1.3-1,2.6-1,3.9c0,6.7,8.2,12.4,17.8,12.4s17.8-5.7,17.8-12.4
		c0-1.4-0.3-2.7-1-3.9C65.6,61.7,64.6,61,63.5,61L63.5,61z"/>
</g>
</svg>